<?xml version="1.0" encoding="utf-8"?>
<!-- Svg Vector Icons : http://www.onlinewebfonts.com/icon -->
<!DOCTYPE svg PUBLIC "-//W3C//DTD SVG 1.1//EN" "http://www.w3.org/Graphics/SVG/1.1/DTD/svg11.dtd">
<svg version="1.1" xmlns="http://www.w3.org/2000/svg" xmlns:xlink="http://www.w3.org/1999/xlink" x="0px" y="0px" viewBox="0 0 1000 1000" enable-background="new 0 0 1000 1000" xml:space="preserve">
<g><g><g><path d="M990,188c-6.6,13.8-18.8,31.3-36.6,52.4c-17.8,21.1-39.9,39.7-66.1,55.7c0.7,5.8,1.3,11.3,1.6,16.4c0.4,5.1,0.5,10.6,0.5,16.4c0,30.6-3.5,64.1-10.4,100.5c-6.9,36.4-17.7,73.4-32.2,110.9c-14.6,37.5-33,74.7-55.2,111.4c-22.2,36.8-48.6,70.8-79.2,102.2c-30.6,31.3-65.4,59-104.3,83c-39,24-82.5,41.9-130.6,53.5C421.5,902.8,365.4,909,309.4,909c-24,0-49-1.3-74.8-3.8c-25.9-2.6-51.7-7.3-77.6-14.2s-51.3-16.2-76.5-27.9c-25.1-11.6-48.6-26.6-70.5-44.8c56.8,8,110.5,3.5,161.1-13.7c50.6-17.1,96.7-41.3,138.2-72.6c-9.5,0-22-0.9-37.7-2.7c-15.7-1.8-32.4-7.3-50.3-16.4c-17.8-9.1-35.9-23.1-54.1-42.1c-18.2-18.9-34.2-45.5-48.1-79.8c4.4,1.5,10.4,2.4,18,2.7c7.6,0.4,15.8,0.2,24.6-0.6c8.7-0.7,17.3-1.6,25.7-2.7c8.4-1.1,15.8-2.4,22.4-3.8c-37.9-11.7-67.6-27.1-89-46.4c-21.5-19.3-37.3-39.1-47.5-59.5c-10.2-20.4-16.6-39.7-19.1-57.9c-2.5-18.2-3.8-32.4-3.8-42.6c9.5,5.8,23.3,12,41.5,18.6c18.2,6.6,34.6,9.5,49.2,8.7c-29.9-24.8-51.5-49.3-65-73.7c-13.5-24.4-21.5-48.1-24-71c-2.5-22.9-1.3-45.3,3.8-67.2c5.1-21.9,12-43,20.8-63.4c40.1,45.2,79.9,81.8,119.6,109.8c39.7,28,77.6,49.7,113.6,65c36.1,15.3,69.7,25.5,101.1,30.6c31.3,5.1,58.6,7.6,81.9,7.6c-4.4-29.1-4.6-56.8-0.6-83c4-26.2,12.4-50.3,25.1-72.1c12.8-21.9,29.7-40.6,50.8-56.3c21.1-15.7,46.3-27.5,75.4-35.5c35.7-10.2,69.9-9.8,102.7,1.1c32.8,10.9,60.8,29.9,84.1,56.8c10.2-0.7,26.2-4,48.1-9.8c21.8-5.8,49.2-18.6,81.9-38.2c-2.2,7.3-5.6,16.2-10.4,26.8c-4.7,10.6-10.7,21.3-18,32.2c-7.3,10.9-16,21.5-26.2,31.7c-10.2,10.2-21.8,18.6-35,25.1c10.9-2.2,22.9-4.7,36-7.6c10.9-2.9,23.7-6.7,38.2-11.5S974.7,194.5,990,188z"/></g></g><g></g><g></g><g></g><g></g><g></g><g></g><g></g><g></g><g></g><g></g><g></g><g></g><g></g><g></g><g></g></g>
</svg>
