<svg version="1.1" xmlns="http://www.w3.org/2000/svg" xmlns:xlink="http://www.w3.org/1999/xlink" style="" xml:space="preserve" width="310" height="219"><rect id="backgroundrect" width="100%" height="100%" x="0" y="0" fill="none" stroke="none" style="" class=""/>
















<g class="currentLayer" style=""><title>Layer 1</title><g id="XMLID_822_" class="" fill="#ffffff" fill-opacity="1">
	<path id="XMLID_823_" d="M297.915771484375,19.341129779815674 c-11.1899995803833,-13.302000045776367 -31.850000381469727,-18.72800064086914 -71.30599975585938,-18.72800064086914 H83.38479614257812 c-40.35900115966797,0 -61.36899948120117,5.776000022888184 -72.51699829101562,19.937999725341797 C-0.0012085437774658203,34.359135150909424 -0.0012085437774658203,54.70413637161255 -0.0012085437774658203,82.86213731765747 v53.66899871826172 c0,54.55099868774414 12.895999908447266,82.24800109863281 83.38600158691406,82.24800109863281 h143.2259979248047 c34.215999603271484,0 53.17599868774414,-4.788000106811523 65.44200134277344,-16.527000427246094 C304.63177490234375,190.21413469314575 309.998779296875,170.55913591384888 309.998779296875,136.5311360359192 v-53.66899871826172 C309.998779296875,53.167133808135986 309.15777587890625,32.70212984085083 297.915771484375,19.341129779815674 zM199.01979064941406,117.10614061355591 l-65.03800201416016,33.99100112915039 c-1.4539999961853027,0.7599999904632568 -3.0439999103546143,1.1369999647140503 -4.631999969482422,1.1369999647140503 c-1.7979999780654907,0 -3.5920000076293945,-0.48399999737739563 -5.181000232696533,-1.4459999799728394 c-2.992000102996826,-1.812999963760376 -4.818999767303467,-5.056000232696533 -4.818999767303467,-8.553999900817871 v-67.76399993896484 c0,-3.492000102996826 1.8220000267028809,-6.73199987411499 4.808000087738037,-8.545999526977539 c2.986999988555908,-1.8140000104904175 6.702000141143799,-1.937999963760376 9.800999641418457,-0.328000009059906 l65.03800201416016,33.77199935913086 c3.309000015258789,1.718000054359436 5.38700008392334,5.133999824523926 5.392000198364258,8.861000061035156 C204.39279174804688,111.95913743972778 202.32379150390625,115.38014268875122 199.01979064941406,117.10614061355591 z" fill="#ffffff" fill-opacity="1"/>
</g><g id="svg_1" class="">
</g><g id="svg_2" class="">
</g><g id="svg_3" class="">
</g><g id="svg_4" class="">
</g><g id="svg_5" class="">
</g><g id="svg_6" class="">
</g><g id="svg_7" class="">
</g><g id="svg_8" class="">
</g><g id="svg_9" class="">
</g><g id="svg_10" class="">
</g><g id="svg_11" class="">
</g><g id="svg_12" class="">
</g><g id="svg_13" class="">
</g><g id="svg_14" class="">
</g><g id="svg_15" class="">
</g></g></svg>