<svg xmlns:dc="http://purl.org/dc/elements/1.1/" xmlns:cc="http://creativecommons.org/ns#" xmlns:rdf="http://www.w3.org/1999/02/22-rdf-syntax-ns#" xmlns:svg="http://www.w3.org/2000/svg" xmlns="http://www.w3.org/2000/svg" xmlns:sodipodi="http://sodipodi.sourceforge.net/DTD/sodipodi-0.dtd" xmlns:inkscape="http://www.inkscape.org/namespaces/inkscape" role="img" version="1.1" sodipodi:docname="github.svg" inkscape:version="1.0 (4035a4fb49, 2020-05-01)" width="24" height="24"><rect id="backgroundrect" width="100%" height="100%" x="0" y="0" fill="none" stroke="none"/>
  <metadata id="metadata12">
    <rdf:RDF>
      <cc:Work rdf:about="">
        <dc:format>image/svg+xml</dc:format>
        <dc:type rdf:resource="http://purl.org/dc/dcmitype/StillImage"/>
      </cc:Work>
    </rdf:RDF>
  </metadata>
  <defs id="defs10"/>
  <sodipodi:namedview inkscape:document-rotation="0" pagecolor="#ffffff" bordercolor="#666666" borderopacity="1" objecttolerance="10" gridtolerance="10" guidetolerance="10" inkscape:pageopacity="0" inkscape:pageshadow="2" inkscape:window-width="1920" inkscape:window-height="1017" id="namedview8" showgrid="false" inkscape:zoom="35.416667" inkscape:cx="12" inkscape:cy="12" inkscape:window-x="-8" inkscape:window-y="-8" inkscape:window-maximized="1" inkscape:current-layer="svg6"/>
  <title id="title2">GitHub icon</title>
  
<g class="currentLayer" style=""><title>Layer 1</title><path d="M12,0.39456096291542053 c-6.630000114440918,0 -12,5.373000144958496 -12,12 c0,5.302999973297119 3.437999963760376,9.800000190734863 8.204999923706055,11.385000228881836 c0.6000000238418579,0.11299999803304672 0.8199999928474426,-0.257999986410141 0.8199999928474426,-0.5770000219345093 c0,-0.2849999964237213 -0.009999999776482582,-1.0399999618530273 -0.014999999664723873,-2.0399999618530273 c-3.3380000591278076,0.7239999771118164 -4.041999816894531,-1.6100000143051147 -4.041999816894531,-1.6100000143051147 C4.421999931335449,18.167560666799545 3.632999897003174,17.79756173491478 3.632999897003174,17.79756173491478 c-1.0870000123977661,-0.7440000176429749 0.08399999886751175,-0.7289999723434448 0.08399999886751175,-0.7289999723434448 c1.2050000429153442,0.08399999886751175 1.8380000591278076,1.2359999418258667 1.8380000591278076,1.2359999418258667 c1.0700000524520874,1.8350000381469727 2.809000015258789,1.3049999475479126 3.494999885559082,0.9980000257492065 c0.1080000028014183,-0.7760000228881836 0.4169999957084656,-1.3049999475479126 0.7599999904632568,-1.6050000190734863 c-2.6649999618530273,-0.30000001192092896 -5.466000080108643,-1.3320000171661377 -5.466000080108643,-5.929999828338623 c0,-1.309999942779541 0.4650000035762787,-2.380000114440918 1.2350000143051147,-3.2200000286102295 c-0.13500000536441803,-0.30300000309944153 -0.5400000214576721,-1.5230000019073486 0.10499999672174454,-3.1760001182556152 c0,0 1.0049999952316284,-0.32199999690055847 3.299999952316284,1.2300000190734863 c0.9599999785423279,-0.2669999897480011 1.9800000190734863,-0.39899998903274536 3,-0.4050000011920929 c1.0199999809265137,0.006000000052154064 2.0399999618530273,0.1379999965429306 3,0.4050000011920929 c2.2799999713897705,-1.5520000457763672 3.2850000858306885,-1.2300000190734863 3.2850000858306885,-1.2300000190734863 c0.6449999809265137,1.652999997138977 0.23999999463558197,2.872999906539917 0.11999999731779099,3.1760001182556152 c0.7649999856948853,0.8399999737739563 1.2300000190734863,1.909999966621399 1.2300000190734863,3.2200000286102295 c0,4.610000133514404 -2.805000066757202,5.625 -5.474999904632568,5.920000076293945 c0.41999998688697815,0.36000001430511475 0.8100000023841858,1.0959999561309814 0.8100000023841858,2.2200000286102295 c0,1.6059999465942383 -0.014999999664723873,2.8959999084472656 -0.014999999664723873,3.2860000133514404 c0,0.3149999976158142 0.20999999344348907,0.6899999976158142 0.824999988079071,0.5699999928474426 C20.565000534057617,22.189560025930405 24,17.689560025930405 24,12.394560903310776 c0,-6.626999855041504 -5.373000144958496,-12 -12,-12 " id="path4" style="" class="" fill="#ffffff" fill-opacity="1"/></g></svg>