<svg version="1.1" xmlns="http://www.w3.org/2000/svg" xmlns:xlink="http://www.w3.org/1999/xlink" enable-background="new 0 0 1000 1000" xml:space="preserve" width="980" height="818"><rect id="backgroundrect" width="100%" height="100%" x="0" y="0" fill="none" stroke="none"/>

<g class="currentLayer" style=""><title>Layer 1</title><g id="svg_1" class="" fill="#ffffff" fill-opacity="1"><g id="svg_2" fill="#ffffff" fill-opacity="1"><g id="svg_3" fill="#ffffff" fill-opacity="1"><path d="M980,97.0703125 c-6.599999904632568,13.800000190734863 -18.799999237060547,31.299999237060547 -36.599998474121094,52.400001525878906 c-17.799999237060547,21.100000381469727 -39.900001525878906,39.70000076293945 -66.0999984741211,55.70000076293945 c0.699999988079071,5.800000190734863 1.2999999523162842,11.300000190734863 1.600000023841858,16.399999618530273 c0.4000000059604645,5.099999904632568 0.5,10.600000381469727 0.5,16.399999618530273 c0,30.600000381469727 -3.5,64.0999984741211 -10.399999618530273,100.5 c-6.900000095367432,36.400001525878906 -17.700000762939453,73.4000015258789 -32.20000076293945,110.9000015258789 c-14.600000381469727,37.5 -33,74.69999694824219 -55.20000076293945,111.4000015258789 c-22.200000762939453,36.79999923706055 -48.599998474121094,70.80000305175781 -79.19999694824219,102.19999694824219 c-30.600000381469727,31.299999237060547 -65.4000015258789,59 -104.30000305175781,83 c-39,24 -82.5,41.900001525878906 -130.60000610351562,53.5 C411.5,811.8703002929688 355.3999938964844,818.0703125 299.3999938964844,818.0703125 c-24,0 -49,-1.2999999523162842 -74.80000305175781,-3.799999952316284 c-25.899999618530273,-2.5999999046325684 -51.70000076293945,-7.300000190734863 -77.5999984741211,-14.199999809265137 s-51.29999923706055,-16.200000762939453 -76.5,-27.899999618530273 c-25.100000381469727,-11.600000381469727 -48.599998474121094,-26.600000381469727 -70.5,-44.79999923706055 c56.79999923706055,8 110.5,3.5 161.10000610351562,-13.699999809265137 c50.599998474121094,-17.100000381469727 96.69999694824219,-41.29999923706055 138.1999969482422,-72.5999984741211 c-9.5,0 -22,-0.8999999761581421 -37.70000076293945,-2.700000047683716 c-15.699999809265137,-1.7999999523162842 -32.400001525878906,-7.300000190734863 -50.29999923706055,-16.399999618530273 c-17.799999237060547,-9.100000381469727 -35.900001525878906,-23.100000381469727 -54.099998474121094,-42.099998474121094 c-18.200000762939453,-18.899999618530273 -34.20000076293945,-45.5 -48.099998474121094,-79.80000305175781 c4.400000095367432,1.5 10.399999618530273,2.4000000953674316 18,2.700000047683716 c7.599999904632568,0.4000000059604645 15.800000190734863,0.20000000298023224 24.600000381469727,-0.6000000238418579 c8.699999809265137,-0.699999988079071 17.299999237060547,-1.600000023841858 25.700000762939453,-2.700000047683716 c8.399999618530273,-1.100000023841858 15.800000190734863,-2.4000000953674316 22.399999618530273,-3.799999952316284 c-37.900001525878906,-11.699999809265137 -67.5999984741211,-27.100000381469727 -89,-46.400001525878906 c-21.5,-19.299999237060547 -37.29999923706055,-39.099998474121094 -47.5,-59.5 c-10.199999809265137,-20.399999618530273 -16.600000381469727,-39.70000076293945 -19.100000381469727,-57.900001525878906 c-2.5,-18.200000762939453 -3.799999952316284,-32.400001525878906 -3.799999952316284,-42.599998474121094 c9.5,5.800000190734863 23.299999237060547,12 41.5,18.600000381469727 c18.200000762939453,6.599999904632568 34.599998474121094,9.5 49.20000076293945,8.699999809265137 c-29.899999618530273,-24.799999237060547 -51.5,-49.29999923706055 -65,-73.69999694824219 c-13.5,-24.399999618530273 -21.5,-48.099998474121094 -24,-71 c-2.5,-22.899999618530273 -1.2999999523162842,-45.29999923706055 3.799999952316284,-67.19999694824219 c5.099999904632568,-21.899999618530273 12,-43 20.799999237060547,-63.400001525878906 c40.099998474121094,45.20000076293945 79.9000015258789,81.80000305175781 119.5999984741211,109.80000305175781 c39.70000076293945,28 77.5999984741211,49.70000076293945 113.5999984741211,65 c36.099998474121094,15.300000190734863 69.69999694824219,25.5 101.0999984741211,30.600000381469727 c31.299999237060547,5.099999904632568 58.599998474121094,7.599999904632568 81.9000015258789,7.599999904632568 c-4.400000095367432,-29.100000381469727 -4.599999904632568,-56.79999923706055 -0.6000000238418579,-83 c4,-26.200000762939453 12.399999618530273,-50.29999923706055 25.100000381469727,-72.0999984741211 c12.800000190734863,-21.899999618530273 29.700000762939453,-40.599998474121094 50.79999923706055,-56.29999923706055 c21.100000381469727,-15.699999809265137 46.29999923706055,-27.5 75.4000015258789,-35.5 c35.70000076293945,-10.199999809265137 69.9000015258789,-9.800000190734863 102.69999694824219,1.100000023841858 c32.79999923706055,10.899999618530273 60.79999923706055,29.899999618530273 84.0999984741211,56.79999923706055 c10.199999809265137,-0.699999988079071 26.200000762939453,-4 48.099998474121094,-9.800000190734863 c21.799999237060547,-5.800000190734863 49.20000076293945,-18.600000381469727 81.9000015258789,-38.20000076293945 c-2.200000047683716,7.300000190734863 -5.599999904632568,16.200000762939453 -10.399999618530273,26.799999237060547 c-4.699999809265137,10.600000381469727 -10.699999809265137,21.299999237060547 -18,32.20000076293945 c-7.300000190734863,10.899999618530273 -16,21.5 -26.200000762939453,31.700000762939453 c-10.199999809265137,10.199999809265137 -21.799999237060547,18.600000381469727 -35,25.100000381469727 c10.899999618530273,-2.200000047683716 22.899999618530273,-4.699999809265137 36,-7.599999904632568 c10.899999618530273,-2.9000000953674316 23.700000762939453,-6.699999809265137 38.20000076293945,-11.5 S964.7000122070312,103.5703125 980,97.0703125 z" id="svg_4" fill="#ffffff" fill-opacity="1"/></g></g><g id="svg_5" fill="#ffffff" fill-opacity="1"/><g id="svg_6" fill="#ffffff" fill-opacity="1"/><g id="svg_7" fill="#ffffff" fill-opacity="1"/><g id="svg_8" fill="#ffffff" fill-opacity="1"/><g id="svg_9" fill="#ffffff" fill-opacity="1"/><g id="svg_10" fill="#ffffff" fill-opacity="1"/><g id="svg_11" fill="#ffffff" fill-opacity="1"/><g id="svg_12" fill="#ffffff" fill-opacity="1"/><g id="svg_13" fill="#ffffff" fill-opacity="1"/><g id="svg_14" fill="#ffffff" fill-opacity="1"/><g id="svg_15" fill="#ffffff" fill-opacity="1"/><g id="svg_16" fill="#ffffff" fill-opacity="1"/><g id="svg_17" fill="#ffffff" fill-opacity="1"/><g id="svg_18" fill="#ffffff" fill-opacity="1"/><g id="svg_19" fill="#ffffff" fill-opacity="1"/></g></g></svg>